<svg width="61" height="60" viewBox="0 0 61 60" fill="none" xmlns="http://www.w3.org/2000/svg">

    <defs>
        <filter id="filter0_b_56_8" x="-9.9646" y="-10" width="80" height="80" filterUnits="userSpaceOnUse" color-interpolation-filters="sRGB">
            <feFlood flood-opacity="0" result="BackgroundImageFix"/>
            <feGaussianBlur in="BackgroundImage" stdDeviation="5"/>
            <feComposite in2="SourceAlpha" operator="in" result="effect1_backgroundBlur_56_8"/>
            <feBlend mode="normal" in="SourceGraphic" in2="effect1_backgroundBlur_56_8" result="shape"/>
        </filter>
        <filter id="filter1_ii_56_8" x="18.0354" y="20.6815" width="24" height="19.4456" filterUnits="userSpaceOnUse" color-interpolation-filters="sRGB">
            <feFlood flood-opacity="0" result="BackgroundImageFix"/>
            <feBlend mode="normal" in="SourceGraphic" in2="BackgroundImageFix" result="shape"/>
            <feColorMatrix in="SourceAlpha" type="matrix" values="0 0 0 0 0 0 0 0 0 0 0 0 0 0 0 0 0 0 127 0" result="hardAlpha"/>
            <feOffset dy="3.31852"/>
            <feGaussianBlur stdDeviation="1.65926"/>
            <feComposite in2="hardAlpha" operator="arithmetic" k2="-1" k3="1"/>
            <feColorMatrix type="matrix" values="0 0 0 0 0.144366 0 0 0 0 0.34276 0 0 0 0 0.52925 0 0 0 1 0"/>
            <feBlend mode="normal" in2="shape" result="effect1_innerShadow_56_8"/>
            <feColorMatrix in="SourceAlpha" type="matrix" values="0 0 0 0 0 0 0 0 0 0 0 0 0 0 0 0 0 0 127 0" result="hardAlpha"/>
            <feOffset dy="-3.31852"/>
            <feGaussianBlur stdDeviation="1.65926"/>
            <feComposite in2="hardAlpha" operator="arithmetic" k2="-1" k3="1"/>
            <feColorMatrix type="matrix" values="0 0 0 0 0.0995625 0 0 0 0 0.236386 0 0 0 0 0.365 0 0 0 1 0"/>
            <feBlend mode="normal" in2="effect1_innerShadow_56_8" result="effect2_innerShadow_56_8"/>
        </filter>
        <linearGradient id="paint0_linear_56_8" x1="30.0354" y1="24" x2="30.0354" y2="36.8095" gradientUnits="userSpaceOnUse">
            <stop stop-color="#1B3F62"/>
            <stop offset="1" stop-color="#245482"/>
        </linearGradient>
    </defs>
    <g filter="url(#filter0_b_56_8)">
<circle cx="30.0354" cy="30" r="30" fill="white"/>
</g>
<g filter="url(#filter1_ii_56_8)">
<path fill-rule="evenodd" clip-rule="evenodd" d="M41.1148 28.195L37.3084 24.3493C37.1987 24.2387 37.068 24.1507 36.9242 24.0908C36.7803 24.0309 36.626 24 36.4702 24C36.3143 24 36.1601 24.0309 36.0162 24.0908C35.8724 24.1507 35.7419 24.2385 35.6322 24.349C35.4124 24.5702 35.2889 24.8694 35.2889 25.1812C35.2889 25.4931 35.4124 25.7923 35.6322 26.0135L38.8016 29.2095H19.2159C18.9028 29.2095 18.6025 29.3339 18.3811 29.5553C18.1598 29.7767 18.0354 30.0769 18.0354 30.39L18.0519 30.5867C18.0925 30.8268 18.2067 31.0503 18.3811 31.2247C18.6025 31.4461 18.9028 31.5705 19.2159 31.5705H38.8569L35.633 34.7854C35.5225 34.8951 35.4347 35.0256 35.3748 35.1694C35.3149 35.3132 35.284 35.4675 35.284 35.6234C35.284 35.7792 35.3149 35.9335 35.3748 36.0773C35.4346 36.2209 35.5223 36.3513 35.6326 36.4609C35.7422 36.5713 35.8726 36.6589 36.0162 36.7187C36.1601 36.7787 36.3143 36.8095 36.4702 36.8095C36.626 36.8095 36.7803 36.7787 36.9242 36.7187C37.0679 36.6588 37.1986 36.5709 37.3083 36.4603L41.1148 32.644C41.7043 32.0538 42.0354 31.2537 42.0354 30.4195C42.0354 29.5855 41.7041 28.7852 41.1148 28.195Z" fill="url(#paint0_linear_56_8)"/>
</g>
</svg>
