<svg width="25" height="14" viewBox="0 0 25 14" fill="none" xmlns="http://www.w3.org/2000/svg">
<path fill-rule="evenodd" clip-rule="evenodd" d="M0.935949 4.26446L4.80531 0.355106C4.91687 0.242632 5.04974 0.15321 5.19597 0.0922881C5.3422 0.0313657 5.49904 0 5.65746 0C5.81587 0 5.97272 0.0313655 6.11895 0.0922881C6.26511 0.153182 6.39778 0.242399 6.5093 0.354798C6.7328 0.579633 6.85825 0.883776 6.85825 1.2008C6.85825 1.51782 6.7328 1.82196 6.5093 2.0468L3.28745 5.2958L23.1975 5.2958C23.5157 5.2958 23.8209 5.42223 24.046 5.64727C24.271 5.87231 24.3975 6.17754 24.3975 6.4958L24.3807 6.6958C24.3394 6.93986 24.2233 7.16699 24.046 7.34433C23.8209 7.56937 23.5157 7.6958 23.1975 7.6958L3.23125 7.6958L6.50846 10.964C6.62086 11.0755 6.71008 11.2081 6.77097 11.3543C6.83189 11.5005 6.86326 11.6574 6.86326 11.8158C6.86326 11.9742 6.83189 12.1311 6.77097 12.2773C6.71015 12.4233 6.62108 12.5558 6.50888 12.6672C6.39745 12.7794 6.26493 12.8685 6.11895 12.9293C5.97272 12.9902 5.81587 13.0216 5.65746 13.0216C5.49905 13.0216 5.3422 12.9902 5.19597 12.9293C5.04981 12.8684 4.91698 12.779 4.80546 12.6666L0.935949 8.78713C0.336695 8.18713 9.91821e-05 7.3738 9.91821e-05 6.5258C9.91821e-05 5.67794 0.336887 4.86444 0.935949 4.26446Z" fill="black"/>
</svg>
