<svg width="45" height="41" viewBox="0 0 45 41" fill="none" xmlns="http://www.w3.org/2000/svg">
<path d="M34.7777 11.6494L32.0722 11.8647C32.0586 11.8656 32.046 11.8665 32.0324 11.8665C31.9393 11.8661 31.8484 11.8386 31.7706 11.7875C31.6928 11.7364 31.6315 11.6638 31.5942 11.5786C31.5568 11.4933 31.545 11.3991 31.5601 11.3073C31.5753 11.2154 31.6167 11.13 31.6795 11.0612L33.2476 9.35106C32.6216 9.10866 32.0668 8.71252 31.6342 8.19918L29.7422 10.5581C29.6962 10.6156 29.6332 10.6571 29.5623 10.6769C29.4913 10.6966 29.416 10.6936 29.3469 10.6682C29.2778 10.6428 29.2184 10.5963 29.1771 10.5353C29.1359 10.4743 29.1148 10.4019 29.117 10.3283L29.2029 7.42282C29.0068 7.42904 28.8105 7.41693 28.6166 7.38663C28.033 7.30101 27.4785 7.07666 26.9996 6.73242C26.9996 6.73242 27.6348 9.42344 25.6894 12.8664C26.3554 13.9848 26.8566 15.9537 24.9646 18.6411C25.1247 19.0737 25.229 19.525 25.275 19.9839L25.2831 19.983C26.4085 18.837 27.7711 17.9513 29.2753 17.3879L30.743 15.8497C32.5373 13.5559 35.0211 13.4202 35.0211 13.4202L35.0745 11.9751C34.965 11.8766 34.8656 11.7675 34.7777 11.6494Z" fill="#B4DD7F"/>
<path d="M27.6822 12.4087C27.5508 12.3828 27.4146 12.4063 27.2994 12.4746C27.1842 12.5428 27.0982 12.6511 27.0579 12.7788C26.8505 13.4278 26.3647 14.6188 25.402 15.4933L26.1319 16.2972C27.2833 15.2516 27.85 13.878 28.0946 13.1079C28.1179 13.0348 28.1255 12.9577 28.117 12.8816C28.1084 12.8054 28.0838 12.732 28.0449 12.6659C28.006 12.5999 27.9535 12.5429 27.891 12.4986C27.8285 12.4542 27.7574 12.4236 27.6822 12.4087Z" fill="#959953"/>
<path d="M39.864 8.0081C39.6944 7.87174 39.5538 7.70284 39.4505 7.51134L39.4378 7.48781C39.3271 7.27337 39.2631 7.03787 39.2502 6.79688C39.2373 6.55589 39.2756 6.31489 39.3627 6.08982C40.0495 4.26021 39.6396 2.10034 38.1502 0.910462C36.6237 -0.30837 34.4711 -0.270367 32.8496 0.857076C32.5148 1.0919 32.1011 1.18581 31.6977 1.11858C31.4905 1.08164 31.2925 1.00448 31.115 0.89146C29.555 -0.0839676 27.4323 0.153103 26.2641 1.59905C26.2379 1.63163 26.2116 1.66511 26.1863 1.69859C24.9204 3.37889 25.4497 5.61477 26.9997 6.73317C27.4787 7.07741 28.0332 7.30175 28.6167 7.38737C28.8106 7.41767 29.0069 7.42979 29.2031 7.42357V7.42266C29.9713 7.39371 30.3984 7.04172 30.6137 6.7757C30.6313 6.75338 30.6546 6.73627 30.6811 6.72623C30.7077 6.71619 30.7365 6.71358 30.7644 6.71871C30.7924 6.72383 30.8184 6.73648 30.8397 6.75529C30.8609 6.7741 30.8767 6.79837 30.8852 6.82546C31.0623 7.39778 31.367 7.92246 31.7762 8.36005C32.1854 8.79763 32.6886 9.13672 33.2477 9.3518C33.6563 9.51128 34.083 9.61948 34.5181 9.67393C34.546 9.67729 34.5725 9.68816 34.5947 9.70538C34.6169 9.7226 34.6341 9.74553 34.6443 9.77172C34.6545 9.7979 34.6574 9.82637 34.6527 9.85409C34.648 9.8818 34.6359 9.90773 34.6177 9.9291C34.3878 10.2042 34.2612 10.9543 34.7778 11.6501C34.8657 11.7683 34.9652 11.8774 35.0746 11.9759L37.7258 14.5339H37.7294C38.6976 14.5312 39.8169 13.9892 40.5318 13.154C40.5589 13.1214 40.5861 13.0888 40.6123 13.0563C41.775 11.6013 41.3986 9.26946 39.864 8.0081Z" fill="#81C83D"/>
<path d="M25.6894 12.867C26.3554 13.9854 26.8567 15.9544 24.9646 18.6418C25.1247 19.0743 25.229 19.5256 25.275 19.9846C25.4551 21.5119 25.2424 24.1233 22.5985 26.6515C22.1695 27.0606 21.7126 27.4394 21.2312 27.7853H21.2303C21.6601 22.5534 19.4369 20.2614 17.8779 19.3077C17.4358 19.027 16.9533 18.8155 16.4473 18.6807C15.1461 14.5301 12.2868 14.465 11.2697 14.5835V14.5808C11.1711 11.2953 14.4729 10.4619 14.4729 10.4619C14.1074 7.64331 15.8347 5.71869 17.5612 4.5261C18.4451 3.91799 19.5226 3.65794 20.5867 3.79589C21.6507 3.93385 22.6263 4.46008 23.326 5.27351C24.6887 6.86695 25.8641 9.16798 24.7882 11.8002C25.1485 12.1005 25.4535 12.4616 25.6894 12.867Z" fill="#B4DD7F"/>
<path d="M20.5923 19.3083C20.1467 19.0262 19.6602 18.8146 19.1499 18.6812C17.8488 14.5307 14.956 14.4655 13.9606 14.5841V14.5814C13.8702 11.2959 17.1756 10.4625 17.1756 10.4625C16.81 7.64388 18.5432 5.71927 20.2697 4.52667C20.6114 4.29107 20.9852 4.10588 21.3796 3.9768C20.7436 3.7678 20.0678 3.70868 19.4051 3.80407C18.7425 3.89946 18.1108 4.14677 17.5596 4.52667C15.8331 5.71927 14.0947 7.64388 14.4603 10.4625C14.4603 10.4625 11.1556 11.2959 11.2461 14.5814V14.5841C12.2414 14.4655 15.1342 14.5307 16.4354 18.6812C16.9423 18.827 17.4259 19.0439 17.8718 19.3255C19.4309 20.2792 21.66 22.5721 21.2302 27.8202H21.2311C21.7155 27.472 22.1726 27.0872 22.5983 26.6692C23.0917 26.1987 23.536 25.6793 23.9246 25.1191C23.5529 21.7402 21.855 20.0807 20.5923 19.3083Z" fill="#8CC152"/>
<path d="M22.6202 12.985C22.5537 12.9594 22.4828 12.947 22.4115 12.9488C22.3402 12.9505 22.27 12.9663 22.2048 12.9952C22.1396 13.0241 22.0808 13.0655 22.0316 13.1171C21.9824 13.1688 21.9439 13.2296 21.9182 13.2961C21.4953 14.3922 20.2714 15.1149 19.4002 15.5073C20.3887 11.8608 21.3049 9.1053 21.3171 9.06875C21.3404 9.00095 21.35 8.92922 21.3454 8.85769C21.3408 8.78616 21.3221 8.71625 21.2904 8.65199C21.2586 8.58773 21.2144 8.53039 21.1604 8.48329C21.1064 8.43619 21.0435 8.40025 20.9756 8.37755C20.9076 8.35485 20.8358 8.34584 20.7643 8.35104C20.6928 8.35623 20.623 8.37554 20.559 8.40783C20.495 8.44012 20.4381 8.48477 20.3914 8.53919C20.3448 8.59361 20.3094 8.65673 20.2872 8.72491C20.2748 8.76219 19.3337 11.592 18.326 15.3204C17.6916 14.5434 16.8635 13.1294 17.3097 11.3896C17.3454 11.2501 17.3243 11.1021 17.251 10.9782C17.1777 10.8543 17.0581 10.7646 16.9187 10.7288C16.7792 10.693 16.6312 10.7141 16.5073 10.7874C16.3834 10.8607 16.2936 10.9803 16.2579 11.1198C15.5586 13.8464 17.3053 15.8883 17.9959 16.567C17.7763 17.4138 17.5579 18.293 17.3497 19.1858C17.3329 19.2554 17.3301 19.3276 17.3414 19.3983C17.3527 19.469 17.3779 19.5368 17.4155 19.5977C17.4531 19.6587 17.5024 19.7116 17.5605 19.7534C17.6187 19.7952 17.6845 19.8251 17.7542 19.8413C17.8239 19.8576 17.8962 19.8599 17.9668 19.8481C18.0374 19.8364 18.105 19.8107 18.1657 19.7727C18.2264 19.7347 18.279 19.6851 18.3204 19.6267C18.3618 19.5683 18.3913 19.5023 18.4071 19.4324C18.6152 18.5395 18.8339 17.6601 19.0536 16.8137C19.8907 16.5227 22.2062 15.5663 22.9313 13.6872C22.957 13.6207 22.9693 13.5497 22.9676 13.4784C22.9659 13.4071 22.9501 13.3369 22.9212 13.2717C22.8923 13.2064 22.8509 13.1476 22.7992 13.0984C22.7476 13.0492 22.6868 13.0107 22.6202 12.985Z" fill="#8CC152"/>
<path d="M42.1305 21.4659L29.2753 17.3887C27.7711 17.952 26.4085 18.8378 25.2831 19.9838L25.2749 19.9847C25.455 21.5121 25.2424 24.1235 22.5984 26.6516C22.6174 28.2722 22.9694 30.6085 23.7448 32.0346L38.5029 35.9308C40.8601 34.7726 42.7277 32.7575 43.5601 30.147C44.5772 26.9575 44.1293 24.023 42.1305 21.4659Z" fill="#CC443A"/>
<path d="M17.878 19.3085C19.4371 20.2622 21.6603 22.5542 21.2305 27.786C21.2142 27.9971 21.1928 28.2125 21.1662 28.4321C21.0269 29.6066 21.1735 31.1394 21.2848 31.6633L11.782 30.2273C10.628 30.131 9.47529 30.4275 8.51101 31.0688C7.76389 30.1251 7.17529 29.0662 6.76827 27.9335C1.65496 26.341 3.5461 21.9805 3.5461 21.9805C1.08219 20.5499 0.60624 18.0118 0.711203 15.9198C0.768526 14.8494 1.22038 13.8382 1.97955 13.0813C2.73871 12.3245 3.75133 11.8758 4.82193 11.8218C6.91937 11.7177 9.46562 12.1918 10.9016 14.6485C11.0228 14.6189 11.1458 14.5974 11.2699 14.5843C12.2869 14.4657 15.1463 14.5309 16.4474 18.6814C16.9535 18.8163 17.4359 19.0278 17.878 19.3085Z" fill="#B4DD7F"/>
<path d="M9.48281 27.9325C4.36951 26.3399 6.26064 21.9795 6.26064 21.9795C3.79674 20.5489 3.32079 18.0108 3.42575 15.9188C3.47612 14.9767 3.83251 14.0768 4.44081 13.3556C5.04911 12.6345 5.8761 12.1315 6.79623 11.9231C6.14366 11.8186 5.4818 11.7843 4.82193 11.8207C3.75133 11.8747 2.73871 12.3235 1.97955 13.0803C1.22038 13.8371 0.768526 14.8484 0.711203 15.9188C0.60624 18.0108 1.08219 20.5489 3.5461 21.9795C3.5461 21.9795 1.65496 26.3399 6.76827 27.9325C7.17529 29.0652 7.76389 30.1241 8.51101 31.0678C9.15235 30.6437 9.8798 30.3671 10.6409 30.2581C10.1641 29.5315 9.77538 28.7508 9.48281 27.9325Z" fill="#8CC152"/>
<path d="M18.9194 31.2824C18.2341 30.6552 17.529 29.9508 16.8201 29.1995C17.033 28.3194 17.5033 25.8118 16.4602 24.1065C16.3847 23.9844 16.2639 23.8972 16.1243 23.8639C15.9847 23.8307 15.8376 23.854 15.7152 23.9289C15.5928 24.0038 15.505 24.1241 15.471 24.2635C15.437 24.403 15.4596 24.5502 15.5339 24.673C16.165 25.7045 16.0691 27.2217 15.9095 28.2116C14.4333 26.5752 12.9706 24.7895 11.6658 23.1203C11.9506 22.2651 12.588 19.8826 11.5391 18.1672C11.4639 18.0444 11.3431 17.9564 11.2031 17.9227C11.0631 17.889 10.9155 17.9122 10.7926 17.9874C10.6698 18.0625 10.5818 18.1834 10.5481 18.3233C10.5144 18.4633 10.5376 18.611 10.6128 18.7338C11.2214 19.7292 11.0567 21.1226 10.839 22.0506C8.54773 19.0572 6.91538 16.6718 6.88272 16.6238C6.84256 16.5649 6.79118 16.5145 6.73153 16.4754C6.67188 16.4364 6.60513 16.4094 6.53507 16.3962C6.46502 16.3829 6.39304 16.3836 6.32325 16.3982C6.25345 16.4127 6.18721 16.4409 6.1283 16.4811C6.06939 16.5212 6.01897 16.5726 5.97992 16.6322C5.94086 16.6919 5.91394 16.7587 5.90069 16.8287C5.88743 16.8988 5.8881 16.9707 5.90267 17.0405C5.91723 17.1103 5.9454 17.1766 5.98556 17.2355C6.01886 17.2843 7.69654 19.7364 10.0483 22.8026C9.0445 22.8326 7.40201 22.6297 6.28416 21.207C6.1952 21.0937 6.0649 21.0205 5.92194 21.0033C5.77897 20.9862 5.63505 21.0265 5.52183 21.1155C5.4086 21.2044 5.33536 21.3347 5.3182 21.4777C5.30104 21.6207 5.34138 21.7646 5.43034 21.8778C6.75649 23.5658 8.63288 23.8888 9.87533 23.8888C10.1976 23.8892 10.5196 23.8672 10.8388 23.8231C12.1802 25.5375 13.6866 27.3733 15.2065 29.0512C14.155 29.2412 12.3272 29.3428 11.0411 28.1615C10.9888 28.1123 10.9272 28.0739 10.86 28.0486C10.7927 28.0233 10.7211 28.0117 10.6493 28.0143C10.5775 28.0169 10.5069 28.0337 10.4416 28.0638C10.3764 28.0939 10.3178 28.1366 10.2692 28.1896C10.2205 28.2425 10.1829 28.3045 10.1585 28.3721C10.134 28.4397 10.1232 28.5114 10.1267 28.5832C10.1302 28.655 10.1479 28.7253 10.1788 28.7902C10.2097 28.8551 10.2532 28.9132 10.3067 28.9611C11.4161 29.9803 12.7893 30.2561 13.9514 30.2561C14.6633 30.2526 15.3719 30.1579 16.0597 29.9741C16.7775 30.7342 17.492 31.4472 18.187 32.0833C18.2394 32.1327 18.301 32.1712 18.3684 32.1965C18.4358 32.2218 18.5075 32.2335 18.5795 32.2309C18.6514 32.2282 18.7221 32.2113 18.7874 32.1811C18.8527 32.1508 18.9114 32.1079 18.96 32.0548C19.0086 32.0017 19.0461 31.9395 19.0704 31.8717C19.0948 31.804 19.1054 31.7321 19.1016 31.6602C19.0979 31.5883 19.0799 31.5179 19.0487 31.453C19.0175 31.3882 18.9738 31.3302 18.9199 31.2824H18.9194Z" fill="#8CC152"/>
<path d="M30.743 15.8511C30.9536 15.8733 31.1662 15.8712 31.3764 15.8447C34.0212 15.5199 35.1342 17.04 35.1342 17.04C35.2346 15.9578 35.2835 14.5255 35.0211 13.4215C34.9595 13.1482 34.8666 12.8828 34.7442 12.6307C34.7122 12.567 34.6956 12.4968 34.6957 12.4255C34.6957 12.3543 34.7125 12.284 34.7446 12.2204C34.7767 12.1568 34.8233 12.1016 34.8806 12.0593C34.9378 12.0169 35.0043 11.9886 35.0745 11.9765C35.7214 11.8634 36.5919 11.3865 36.9756 11.4969C37.3312 11.5992 37.6886 12.8623 37.7257 14.5345C37.7553 15.7462 37.6127 16.956 37.3022 18.1277L37.3122 18.1304C37.3122 18.1304 39.3427 17.2065 41.3134 18.9954C42.3612 19.9455 43.6108 19.7428 44.2578 19.5401C44.288 19.5304 44.3205 19.5305 44.3506 19.5404C44.3807 19.5503 44.4069 19.5696 44.4253 19.5954C44.4437 19.6212 44.4535 19.6522 44.4532 19.6839C44.4528 19.7156 44.4424 19.7464 44.4234 19.7718C44.0506 20.2604 43.2932 21.0693 42.1305 21.4666C41.1596 21.7986 39.9064 21.8421 38.3582 21.1725C38.321 21.156 38.2794 21.152 38.2397 21.1611C38.2 21.1702 38.1643 21.1919 38.138 21.223C38.1117 21.2541 38.0962 21.2929 38.0938 21.3335C38.0914 21.3742 38.1023 21.4145 38.1247 21.4485C38.6044 22.1678 39.0075 22.9354 39.3273 23.7386C39.6756 24.6109 39.3797 25.1963 39.0757 25.532C39.0338 25.579 38.9816 25.6156 38.9231 25.6388C38.8647 25.6621 38.8016 25.6714 38.7389 25.6661C38.6762 25.6607 38.6156 25.6408 38.5619 25.608C38.5082 25.5751 38.463 25.5302 38.4297 25.4769C38.0102 24.7963 37.4167 24.24 36.7104 23.8653C35.222 23.0826 35.0736 21.7498 35.0591 21.4557C35.0589 21.4517 35.0575 21.4478 35.055 21.4446C35.0525 21.4414 35.0491 21.4391 35.0453 21.4379C35.0414 21.4367 35.0373 21.4367 35.0334 21.438C35.0296 21.4392 35.0262 21.4416 35.0238 21.4448C34.8474 21.6792 33.9805 22.689 32.3129 22.4709C31.5186 22.3706 30.712 22.4833 29.9756 22.7976C29.9177 22.8221 29.8548 22.8327 29.792 22.8286C29.7292 22.8244 29.6683 22.8057 29.614 22.7739C29.5597 22.7421 29.5136 22.6981 29.4793 22.6454C29.445 22.5926 29.4235 22.5326 29.4165 22.47C29.3622 22.0212 29.4608 21.3725 30.2498 20.8612C30.9762 20.3896 31.7498 19.9951 32.5581 19.684C32.5962 19.6694 32.6285 19.6428 32.6501 19.6082C32.6717 19.5737 32.6816 19.533 32.6781 19.4924C32.6746 19.4517 32.658 19.4133 32.6309 19.3829C32.6037 19.3526 32.5673 19.3318 32.5273 19.3239C30.8742 18.9791 29.8752 18.22 29.2753 17.3893C28.5578 16.3967 28.4085 15.3018 28.3876 14.6892C28.3867 14.6575 28.3958 14.6264 28.4138 14.6002C28.4317 14.5741 28.4575 14.5543 28.4873 14.5437C28.5172 14.5331 28.5497 14.5323 28.5801 14.5414C28.6105 14.5505 28.6372 14.569 28.6564 14.5942C29.0029 15.0467 29.6951 15.7434 30.743 15.8511Z" fill="#49C160"/>
<path d="M37.3003 33.9934L11.7818 30.1369C10.6277 30.0406 9.47501 30.3372 8.51073 30.9784C7.83135 31.4272 7.26044 32.0216 6.83947 32.7185C7.19542 33.2494 7.44777 33.8429 7.58326 34.4675C7.70683 35.0601 7.70468 35.672 7.57692 36.2637C7.44858 36.8838 7.18811 37.4689 6.81323 37.9793C7.7208 39.5139 9.36762 40.5726 11.2316 40.6133C11.4152 40.6182 11.5988 40.6128 11.7818 40.597L23.7448 38.8687L37.2904 36.9115C37.6413 36.861 37.9622 36.6856 38.1943 36.4175C38.4274 36.15 38.5554 35.8069 38.5544 35.452C38.5547 35.099 38.4283 34.7576 38.1981 34.4899C37.968 34.2223 37.6494 34.0461 37.3003 33.9934Z" fill="#FF826E"/>
<path d="M3.10975 31.5735L6.67667 33.005C6.43969 33.4557 6.26845 33.9381 6.16814 34.4373L4.56927 34.4039L2.34515 33.4701C2.21953 33.4206 2.10494 33.3468 2.00799 33.2529C1.91104 33.1589 1.83365 33.0467 1.78029 32.9227C1.72693 32.7987 1.69865 32.6654 1.69709 32.5304C1.69553 32.3954 1.72071 32.2615 1.77119 32.1363C1.82166 32.0111 1.89643 31.8971 1.99118 31.8009C2.08593 31.7048 2.19878 31.6283 2.32322 31.576C2.44767 31.5237 2.58124 31.4965 2.71624 31.4961C2.85123 31.4957 2.98497 31.522 3.10975 31.5735Z" fill="#B4DD7F"/>
<path d="M6.66398 37.7097L3.10973 39.1357C2.85757 39.2367 2.57569 39.2337 2.32574 39.1274C2.07579 39.021 1.87813 38.8201 1.77598 38.5684C1.72565 38.4438 1.70045 38.3104 1.70184 38.1761C1.70322 38.0417 1.73117 37.9089 1.78407 37.7854C1.83696 37.6618 1.91377 37.55 2.01006 37.4562C2.10634 37.3625 2.22022 37.2887 2.34513 37.2392L4.62988 36.3162L6.16812 36.2891C6.26508 36.7838 6.43204 37.2621 6.66398 37.7097Z" fill="#B4DD7F"/>
<path d="M11.1836 39.7318C10.7108 39.4117 10.3553 38.9462 10.1711 38.4058C9.98689 37.8654 9.98405 37.2796 10.163 36.7375C10.2143 36.5819 10.2572 36.4238 10.2915 36.2637C10.4192 35.672 10.4214 35.0601 10.2978 34.4675C10.2658 34.3133 10.2258 34.1608 10.1779 34.0107C9.99835 33.4642 10.0014 32.8741 10.1867 32.3295C10.372 31.785 10.7294 31.3154 11.205 30.9918L11.2253 30.9784C11.6993 30.6656 12.2211 30.4318 12.7701 30.2863L11.7818 30.1369C10.6277 30.0406 9.47501 30.3372 8.51073 30.9784C7.83135 31.4272 7.26044 32.0216 6.83947 32.7185C7.19542 33.2494 7.44777 33.8429 7.58326 34.4675C7.70683 35.0601 7.70468 35.672 7.57692 36.2637C7.44858 36.8838 7.18811 37.4689 6.81323 37.9793C7.7208 39.5139 9.36762 40.5726 11.2316 40.6133C11.4152 40.6182 11.5988 40.6128 11.7818 40.597L12.7843 40.4522C12.214 40.3039 11.6728 40.0604 11.1836 39.7318Z" fill="#934444"/>
<path d="M6.83949 32.7188C6.78158 32.8129 6.72819 32.9088 6.67662 33.0065C6.43964 33.4572 6.2684 33.9396 6.16809 34.4389V36.2893C6.26505 36.784 6.43201 37.2623 6.66395 37.7099C6.71191 37.8013 6.76167 37.8918 6.81325 37.9795C7.18812 37.4692 7.4486 36.884 7.57694 36.2639L7.58328 34.4678C7.44779 33.8431 7.19543 33.2497 6.83949 32.7188Z" fill="#963B3B"/>
<path d="M7.58338 34.4655L1.14176 34.3325C1.00499 34.3284 0.868788 34.3518 0.741234 34.4014C0.613679 34.4509 0.497363 34.5255 0.399179 34.6208C0.300994 34.7161 0.222938 34.8302 0.169635 34.9562C0.116332 35.0822 0.0888672 35.2177 0.0888672 35.3545C0.0888672 35.4913 0.116332 35.6268 0.169635 35.7528C0.222938 35.8788 0.300994 35.9929 0.399179 36.0882C0.497363 36.1835 0.613679 36.2581 0.741234 36.3077C0.868788 36.3572 1.00499 36.3806 1.14176 36.3765L7.57705 36.2616C7.7048 35.67 7.70696 35.0581 7.58338 34.4655Z" fill="#B4DD7F"/>
<path d="M11.246 36.6074C11.102 36.6074 10.964 36.6646 10.8621 36.7664C10.7603 36.8683 10.7031 37.0063 10.7031 37.1503V40.5707C10.8832 40.5941 11.0645 40.6079 11.246 40.612C11.4272 40.6168 11.6084 40.6115 11.7889 40.5961V37.1503C11.7889 37.0063 11.7317 36.8683 11.6299 36.7664C11.5281 36.6646 11.39 36.6074 11.246 36.6074Z" fill="#723737"/>
<path d="M15.7703 34.0054C15.7703 34.1494 15.8275 34.2875 15.9293 34.3893C16.0311 34.4911 16.1692 34.5483 16.3132 34.5483C16.4572 34.5483 16.5953 34.4911 16.6971 34.3893C16.7989 34.2875 16.8561 34.1494 16.8561 34.0054V30.9009L15.7926 30.7402C15.7779 30.79 15.7703 30.8417 15.7703 30.8936V34.0054Z" fill="#723737"/>
<path d="M19.7516 34.0664C19.6077 34.0664 19.4696 34.1236 19.3678 34.2254C19.2659 34.3272 19.2087 34.4653 19.2087 34.6093V36.8343C19.2087 36.9783 19.2659 37.1164 19.3678 37.2182C19.4696 37.32 19.6077 37.3773 19.7516 37.3773C19.8956 37.3773 20.0337 37.32 20.1355 37.2182C20.2374 37.1164 20.2946 36.9783 20.2946 36.8343V34.6093C20.2946 34.4653 20.2374 34.3272 20.1355 34.2254C20.0337 34.1236 19.8956 34.0664 19.7516 34.0664Z" fill="#723737"/>
<path d="M23.733 36.0332C23.589 36.0332 23.4509 36.0904 23.3491 36.1922C23.2473 36.294 23.1901 36.4321 23.1901 36.5761V38.8898C23.1921 38.9086 23.1951 38.9272 23.1991 38.9456L23.7363 38.8676L24.2762 38.7892V36.5761C24.2762 36.5048 24.2622 36.4342 24.2349 36.3683C24.2076 36.3024 24.1676 36.2425 24.1171 36.1921C24.0667 36.1417 24.0068 36.1017 23.9408 36.0744C23.8749 36.0472 23.8043 36.0332 23.733 36.0332Z" fill="#723737"/>
<path d="M27.8048 34.6754C27.8048 34.8194 27.862 34.9575 27.9638 35.0593C28.0656 35.1611 28.2037 35.2183 28.3477 35.2183C28.4917 35.2183 28.6298 35.1611 28.7316 35.0593C28.8334 34.9575 28.8906 34.8194 28.8906 34.6754V32.7273L27.8263 32.5664C27.8122 32.6152 27.8049 32.6657 27.8048 32.7165V34.6754Z" fill="#723737"/>
<path d="M33.3244 35.9453C33.1804 35.9453 33.0423 36.0025 32.9405 36.1043C32.8387 36.2061 32.7815 36.3442 32.7815 36.4882V37.4716C32.7817 37.4996 32.7841 37.5275 32.7886 37.555L33.8673 37.3989V36.4882C33.8673 36.3442 33.8101 36.2061 33.7083 36.1043C33.6065 36.0025 33.4684 35.9453 33.3244 35.9453Z" fill="#723737"/>
</svg>
