<svg width="47" height="47" viewBox="0 0 47 47" fill="none" xmlns="http://www.w3.org/2000/svg">
<g clip-path="url(#clip0_56_988)">
<path d="M40.1594 30.0739C41.7229 33.411 40.876 37.0883 38.27 38.2972C35.6641 39.5061 32.298 37.7832 30.7344 34.4534C29.1709 31.1235 30.0178 27.439 32.6238 26.2301C35.2297 25.0212 38.603 26.7441 40.1594 30.0739Z" fill="#B48160"/>
<path d="M45.1759 28.5613C47.7529 34.0772 45.574 40.6211 40.0001 43.9365C33.4345 47.8382 25.2474 45.5 22.2868 39.1806L21.9248 38.4205C20.7185 35.8326 20.1257 33.0011 20.1926 30.1466L20.3663 17.3629C20.4006 16.3119 20.7296 15.2918 21.3158 14.4188C21.9021 13.5459 22.7219 12.8554 23.6817 12.426L25.7013 11.4922V11.4994C24.9198 11.8826 24.2644 12.4817 23.8128 13.2257C23.3612 13.9698 23.1323 14.8278 23.1533 15.6979C23.1533 15.7703 23.1605 15.8499 23.1605 15.9296L23.6745 27.8663C23.7807 30.5725 24.4254 33.2303 25.571 35.6842L25.9185 36.4154C28.7561 42.467 35.8139 45.073 41.1779 41.7648C45.4705 39.1154 47.063 33.6212 45.1447 28.5685L45.1759 28.5613Z" fill="#50761E"/>
<path d="M45.1468 28.5681C47.0651 33.6208 45.4726 39.1151 41.18 41.7645C35.816 45.0726 28.7582 42.4666 25.9206 36.415L25.5731 35.6839C24.4275 33.2299 23.7828 30.5721 23.6766 27.866L23.1626 15.9292C23.1626 15.8496 23.1554 15.7699 23.1554 15.6975C23.1344 14.8274 23.3633 13.9695 23.8149 13.2254C24.2665 12.4813 24.9219 11.8822 25.7034 11.499C25.7107 11.499 25.7107 11.4918 25.7179 11.4918C26.5561 11.1246 27.4845 11.0146 28.3853 11.1757C29.2861 11.3368 30.1188 11.7617 30.7778 12.3967L39.6309 20.4607C41.645 22.2756 43.2745 24.4762 44.423 26.9322L44.7704 27.6633C44.9079 27.9615 45.0382 28.2641 45.1468 28.5681ZM38.27 38.2971C40.8759 37.0882 41.7229 33.4109 40.1593 30.0738C38.5957 26.7367 35.2224 25.0211 32.6237 26.23C30.025 27.4389 29.178 31.1234 30.7344 34.4533C32.2907 37.7831 35.6712 39.5059 38.27 38.2971Z" fill="#FFFCC1"/>
<path d="M17.2969 4.13153V4.58034C17.2957 4.96395 17.1428 5.33153 16.8716 5.60279C16.6003 5.87405 16.2327 6.02695 15.8491 6.02809H14.4014C14.0178 6.02695 13.6502 5.87405 13.3789 5.60279C13.1077 5.33153 12.9548 4.96395 12.9536 4.58034V2.4087C12.9548 2.02508 13.1077 1.6575 13.3789 1.38624C13.6502 1.11498 14.0178 0.962083 14.4014 0.960938H15.8491C16.2327 0.962083 16.6003 1.11498 16.8716 1.38624C17.1428 1.6575 17.2957 2.02508 17.2969 2.4087V4.13153Z" fill="#B48160"/>
<path d="M21.9247 38.4196C20.7183 35.8316 20.1255 33.0002 20.1925 30.1456L20.3662 17.3619C20.3923 16.4499 20.643 15.5584 21.096 14.7664C21.5491 13.9745 22.1905 13.3065 22.9635 12.8218L22.6804 12.1949C22.1771 11.0411 21.7962 9.8377 21.5439 8.60444C21.3467 7.52698 20.8401 6.53024 20.0859 5.73585C19.3318 4.94146 18.3627 4.38377 17.2969 4.13086V4.57966C17.2958 4.96328 17.1429 5.33086 16.8716 5.60212C16.6004 5.87338 16.2328 6.02628 15.8492 6.02742H14.4014C14.0178 6.02628 13.6502 5.87338 13.379 5.60212C13.1077 5.33086 12.9548 4.96328 12.9537 4.57966V4.13086C11.887 4.3823 10.9168 4.93947 10.162 5.73408C9.40729 6.52869 8.90074 7.52622 8.70448 8.60444C8.45225 9.8377 8.07133 11.0411 7.56799 12.1949L4.15128 19.7667C2.33205 23.1022 1.37646 26.8399 1.37158 30.6393C1.37158 39.0363 7.5318 45.8408 15.1253 45.8408C18.5398 45.8149 21.8063 44.4434 24.2158 42.0238C23.43 41.1814 22.7792 40.2225 22.2866 39.1811L21.9247 38.4196Z" fill="#50761E"/>
<path d="M45.176 28.5613L45.147 28.5685C47.0631 33.6139 45.4771 39.0988 41.1982 41.7525L41.1801 41.7648C35.8162 45.073 28.7584 42.467 25.9208 36.4154L25.5733 35.6842C24.4277 33.2303 23.7829 30.5725 23.6767 27.8663L23.1628 15.9296C23.1628 15.8499 23.1555 15.7703 23.1555 15.6979C23.1346 14.8278 23.3635 13.9698 23.8151 13.2257C24.2667 12.4817 24.922 11.8826 25.7036 11.4994V11.4922L24.5164 12.0416C23.7167 12.5197 23.0501 13.1914 22.5783 13.9949C22.1064 14.7983 21.8444 15.7076 21.8164 16.639L21.6405 29.4227C21.5729 32.277 22.1649 35.1085 23.3705 37.6966L23.7325 38.4567C26.4608 44.2803 33.625 46.7089 39.875 44.0038C39.917 43.9792 39.9604 43.9611 40.0017 43.9365C41.8233 42.8623 43.356 41.3606 44.4673 39.5613C45.4945 37.9328 46.0975 36.0729 46.2213 34.1515C46.3451 32.23 45.9857 30.3082 45.176 28.5613Z" fill="#629026"/>
<path d="M15.8491 0.960938H14.4014C14.785 0.962083 15.1526 1.11498 15.4238 1.38624C15.6951 1.6575 15.848 2.02508 15.8491 2.4087V4.58034C15.848 4.96395 15.6951 5.33153 15.4238 5.60279C15.1526 5.87405 14.785 6.02695 14.4014 6.02809H15.8491C16.2327 6.02695 16.6003 5.87405 16.8716 5.60279C17.1428 5.33153 17.2957 4.96395 17.2969 4.58034V2.4087C17.2957 2.02508 17.1428 1.6575 16.8716 1.38624C16.6003 1.11498 16.2327 0.962083 15.8491 0.960938Z" fill="#DD9F76"/>
<path d="M40.1594 30.0739C38.603 26.7441 35.2225 25.0212 32.6238 26.2301C32.3406 26.3635 32.0735 26.5287 31.8275 26.7224C34.3155 26.0448 37.2812 27.7401 38.7102 30.7978C40.1007 33.7657 39.5788 36.9978 37.6171 38.5281C37.8404 38.4697 38.0583 38.3924 38.2686 38.2972C40.876 37.0883 41.7229 33.411 40.1594 30.0739Z" fill="#DD9F76"/>
<path d="M38.7338 37.2274C36.5115 37.2621 34.143 35.6428 32.9059 33.0086C32.3966 32.0145 32.1298 30.914 32.1273 29.7971C32.1248 28.6801 32.3866 27.5784 32.8914 26.582C32.5325 26.5855 32.1755 26.6341 31.8288 26.7268C29.8656 28.2585 29.3502 31.4964 30.7342 34.4578C32.1704 37.5155 35.1311 39.2116 37.6183 38.5326C38.0708 38.1735 38.4496 37.7303 38.7338 37.2274Z" fill="#8A5A3D"/>
<path d="M30.7344 34.453C29.5407 31.8991 29.7615 29.1411 31.1021 27.4473C30.8788 27.5054 30.6609 27.5824 30.4506 27.6775C27.8447 28.8863 27.005 32.5709 28.5613 35.9007C30.1176 39.2306 33.4982 40.9534 36.0969 39.7445C36.6938 39.465 37.2166 39.0489 37.6228 38.5299C35.1349 39.2089 32.1713 37.5164 30.7344 34.453Z" fill="#E0DB89"/>
<path d="M44.7673 27.668L44.4235 26.934C43.2754 24.4774 41.645 22.2769 39.6292 20.4632L30.7762 12.3992C30.1308 11.7453 29.2992 11.3067 28.3951 11.1434C27.491 10.98 26.5586 11.0998 25.7251 11.4864C24.8917 11.8731 24.1981 12.5077 23.739 13.3035C23.2799 14.0993 23.0777 15.0174 23.1602 15.9325L23.6756 27.8685C23.7761 30.5756 24.4217 33.2346 25.5736 35.6864L25.9175 36.4204C28.7529 42.4742 35.8158 45.0759 41.1783 41.7699C45.733 38.9598 47.243 32.9574 44.7673 27.668ZM40.6108 40.8426C39.5493 41.4945 38.3606 41.9117 37.1245 42.066C35.8884 42.2203 34.6336 42.1082 33.4444 41.7373C32.0082 41.2886 30.6829 40.5419 29.5551 39.546C28.4272 38.5501 27.5222 37.3274 26.8991 35.9579L26.5625 35.2231C25.4698 32.9011 24.8574 30.3823 24.7622 27.8178L24.246 15.8854C24.1933 15.1902 24.3483 14.4951 24.6916 13.8882C25.0348 13.2814 25.5507 12.7903 26.1737 12.4774C26.8182 12.2035 27.5293 12.126 28.2177 12.2548C28.906 12.3836 29.541 12.7129 30.0429 13.2013L38.8981 21.266C40.8081 22.9834 42.3527 25.0679 43.4397 27.3951L43.7836 28.1284C46.0124 32.885 44.6486 38.3525 40.6108 40.8426Z" fill="#9CC154"/>
<path d="M22.3417 43.5616L22.3583 43.5493C22.684 43.3249 23.0018 43.0889 23.308 42.837C23.6142 42.5851 23.924 42.31 24.215 42.0248C23.4296 41.1825 22.7791 40.2239 22.2866 39.1828L21.9247 38.4227C20.7181 35.8344 20.1253 33.0024 20.1925 30.1474L20.3662 17.3636C20.3923 16.4516 20.643 15.5601 21.096 14.7682C21.5491 13.9762 22.1905 13.3082 22.9635 12.8235L22.6804 12.1966C22.5714 11.9307 22.4657 11.6633 22.3634 11.3945C22.2743 11.4286 22.1831 11.4532 22.0963 11.493C22.089 11.493 22.089 11.5002 22.0818 11.5002V11.493L20.0622 12.4268C19.1023 12.8562 18.2825 13.5467 17.6963 14.4196C17.1101 15.2926 16.7811 16.3127 16.7468 17.3636L16.5731 30.1474C16.5055 33.0017 17.0975 35.8332 18.3031 38.4213L18.6651 39.1814C18.8738 39.6263 19.112 40.0568 19.3781 40.4699C10.4469 39.371 3.48676 35.1725 1.77985 26.3702C1.50854 27.7776 1.37184 29.2077 1.37158 30.641C1.37158 39.038 7.5318 45.8425 15.1253 45.8425C17.7068 45.834 20.2242 45.0382 22.3417 43.5616Z" fill="#335506"/>
<path d="M17.2968 5.30354V4.57966C17.2956 4.96328 17.1427 5.33086 16.8715 5.60212C16.6002 5.87338 16.2326 6.02628 15.849 6.02742H14.4013C14.0177 6.02628 13.6501 5.87338 13.3788 5.60212C13.1076 5.33086 12.9547 4.96328 12.9535 4.57966V4.13086C11.9581 4.36857 11.0463 4.87284 10.3158 5.58956C9.58527 6.30627 9.06374 7.20838 8.80713 8.19906H14.4013C15.1692 8.19906 15.9057 7.894 16.4487 7.35099C16.9917 6.80797 17.2968 6.07148 17.2968 5.30354Z" fill="#335506"/>
<path d="M37.7786 30.8826C38.2428 30.4184 38.0952 29.5182 37.449 28.872C36.8027 28.2257 35.9026 28.0782 35.4384 28.5423C34.9742 29.0065 35.1218 29.9067 35.768 30.5529C36.4142 31.1992 37.3144 31.3467 37.7786 30.8826Z" fill="#F7FAFD"/>
<path d="M39.3651 32.4834C39.5983 32.2502 39.5243 31.798 39.1998 31.4735C38.8752 31.149 38.4231 31.075 38.1899 31.3082C37.9566 31.5414 38.0307 31.9936 38.3552 32.3181C38.6797 32.6426 39.1319 32.7166 39.3651 32.4834Z" fill="#F7FAFD"/>
<path d="M19.8263 8.58302C20.0595 8.3498 19.9855 7.89766 19.6609 7.57312C19.3364 7.24859 18.8843 7.17457 18.651 7.40779C18.4178 7.64102 18.4918 8.09316 18.8164 8.41769C19.1409 8.74222 19.5931 8.81625 19.8263 8.58302Z" fill="#F7FAFD"/>
<path d="M20.7949 10.8254C20.9116 10.7087 20.8747 10.4825 20.7125 10.3202C20.5502 10.158 20.324 10.1211 20.2072 10.2378C20.0905 10.3546 20.1274 10.5808 20.2897 10.743C20.4519 10.9053 20.6781 10.9422 20.7949 10.8254Z" fill="#F7FAFD"/>
</g>
<defs>
<clipPath id="clip0_56_988">
<rect width="46.3283" height="46.3283" fill="white" transform="translate(0.647949 0.236328)"/>
</clipPath>
</defs>
</svg>
