<svg width="45" height="44" viewBox="0 0 45 44" fill="none" xmlns="http://www.w3.org/2000/svg">
<path d="M33.9607 23.8346C33.9607 32.2131 27.1687 39.0052 18.7902 39.0052C10.4117 39.0052 3.61963 32.2131 3.61963 23.8346C3.61963 15.4561 10.4117 8.66406 18.7902 8.66406C27.1687 8.66406 33.9607 15.4561 33.9607 23.8346Z" fill="#F98500"/>
<path d="M29.4659 13.0605C26.8276 28.1538 16.8809 34.0209 10.1221 36.284C16.5817 40.7675 25.3967 39.5723 30.4289 33.5307C35.4615 27.4887 35.0435 18.603 29.4659 13.0605Z" fill="#F27900"/>
<path d="M26.705 16.5801H28.0241V17.8993H26.705V16.5801Z" fill="#E66000"/>
<path d="M29.3435 20.5371H30.6627V21.8563H29.3435V20.5371Z" fill="#E66000"/>
<path d="M22.7478 29.7715H24.067V31.0907H22.7478V29.7715Z" fill="#E66000"/>
<path d="M26.705 30.4316H28.0241V31.7508H26.705V30.4316Z" fill="#E66000"/>
<path d="M20.7689 33.7285H22.0881V35.0477H20.7689V33.7285Z" fill="#E66000"/>
<path d="M10.3474 15.5504L9.40857 14.6231C9.74481 14.2834 10.0984 13.9619 10.4685 13.6602L11.3017 14.683C10.9683 14.9549 10.6498 15.2444 10.3474 15.5504Z" fill="#FF9419"/>
<path d="M6.98776 22.5875L5.67664 22.4438C5.95104 19.9481 6.93527 17.5839 8.51274 15.6309L9.54045 16.4573C8.12111 18.2148 7.23511 20.342 6.98776 22.5875Z" fill="#FF9419"/>
<path d="M20.8023 3.93577C19.9569 3.3728 19.449 2.424 19.4497 1.4082H18.1305C18.1289 2.86587 18.8571 4.22788 20.0703 5.03594L20.4001 5.25753L21.1321 4.15993L20.8023 3.93577Z" fill="#5F943A"/>
<path d="M18.1305 0.0898438H19.4497V11.9625H18.1305V0.0898438Z" fill="#5F943A"/>
<path d="M20.1094 4.29145C25.8038 3.04957 31.4271 6.65895 32.6693 12.3537C26.9745 13.5956 21.3513 9.98621 20.1094 4.29145Z" fill="#5F943A"/>
<path d="M30.7879 8.27045C28.0223 9.19381 24.506 8.7719 21.8748 8.23438C24.334 11.6312 28.5715 13.2499 32.6691 12.3575C32.3451 10.875 31.7032 9.48077 30.7879 8.27045Z" fill="#568741"/>
<path d="M18.7899 12.5633C17.9551 12.5629 17.139 12.3153 16.4449 11.8515L17.1773 10.7539C18.1535 11.4064 19.4263 11.4064 20.4025 10.7539L21.1349 11.8515C20.4408 12.3153 19.6247 12.5629 18.7899 12.5633Z" fill="#E66000"/>
<path d="M0.684294 30.7697C2.22425 25.5901 12.2914 22.5536 15.256 27.9608C17.2254 32.2236 14.7865 35.0739 11.4322 36.4297C6.87237 38.2725 -1.02021 38.0085 0.684294 30.7697Z" fill="#AB744D"/>
<path d="M13.6019 26.1465C13.9563 26.4062 14.362 26.7212 14.6558 27.086C20.1311 33.8829 7.54128 40.2236 1.94983 36.086C9.28095 35.3315 13.1121 30.4183 13.6019 26.1465Z" fill="#915E3A"/>
<path d="M20.7887 39.2165C16.0972 48.3787 2.8755 42.8096 7.21192 33.2194C11.0571 24.7158 23.4728 33.9747 20.7887 39.2165Z" fill="#AB744D"/>
<path d="M20.7886 39.2157C17.5596 45.5217 5.46886 39.1414 7.9792 32.2711C8.51585 30.8015 9.76461 30.033 11.4415 29.8191C16.4144 29.1845 22.787 35.3128 20.7886 39.2157Z" fill="#7BAB3C"/>
<path d="M15.4631 34.3907C16.4784 35.1662 16.8262 36.4168 16.2401 37.184C15.6538 37.9513 14.3559 37.9446 13.3407 37.1692C12.3255 36.3937 11.9777 35.1431 12.5637 34.3758C13.1499 33.6085 14.4479 33.6153 15.4631 34.3907Z" fill="#F1E981"/>
<path d="M8.33491 27.1888C8.65942 27.812 7.92561 28.8364 6.69605 29.4767C5.46637 30.1171 4.20649 30.131 3.88198 29.5078C3.55747 28.8847 4.29111 27.8603 5.52084 27.22C6.75046 26.5797 8.01034 26.5657 8.33491 27.1888Z" fill="#BD8964"/>
<path d="M11.005 32.2208C11.1238 32.0982 11.4173 32.19 11.6605 32.4259C11.9036 32.6618 12.0043 32.9522 11.8852 33.0749C11.7664 33.1975 11.473 33.1058 11.2298 32.8698C10.9866 32.6339 10.886 32.3436 11.005 32.2208ZM10.9543 35.1388C10.9674 35.3092 10.7041 35.4681 10.3665 35.4938C10.0286 35.5194 9.74435 35.4023 9.73154 35.2321C9.71856 35.0617 9.98174 34.9029 10.3194 34.8772C10.6572 34.8514 10.9415 34.9686 10.9543 35.1388ZM12.0171 37.3092C12.1206 37.4451 11.9861 37.7215 11.7166 37.9267C11.4471 38.1321 11.1448 38.1884 11.0413 38.0525C10.9378 37.9165 11.0724 37.6402 11.3418 37.4349C11.6114 37.2295 11.9135 37.1732 12.0171 37.3092ZM14.1632 38.6766C14.334 38.6766 14.4724 38.9511 14.4724 39.2899C14.4724 39.6286 14.334 39.9031 14.1632 39.9031C13.9923 39.9031 13.8539 39.6286 13.8539 39.2899C13.8539 38.9511 13.9923 38.6766 14.1632 38.6766ZM17.0107 38.1707C17.1296 38.048 17.423 38.1397 17.6662 38.3757C17.9094 38.6115 18.01 38.902 17.8911 39.0246C17.7722 39.1473 17.4787 39.0555 17.2355 38.8196C16.9923 38.5837 16.8917 38.2933 17.0107 38.1707ZM17.8684 36.0086C17.9028 35.8412 18.1995 35.761 18.5314 35.829C18.8632 35.8973 19.1043 36.0881 19.0699 36.2554C19.0355 36.4228 18.7388 36.5031 18.4069 36.435C18.075 36.3668 17.834 36.1758 17.8684 36.0086ZM16.7552 33.9979C16.6966 33.8373 16.907 33.613 17.2251 33.497C17.5433 33.3807 17.8487 33.4165 17.9074 33.577C17.9659 33.7376 17.7555 33.9618 17.4374 34.0778C17.1191 34.1941 16.8137 34.1583 16.7552 33.9979ZM14.7334 32.852C14.5697 32.8032 14.5155 32.5006 14.6122 32.1761C14.709 31.8514 14.9201 31.6278 15.0837 31.6766C15.2475 31.7254 15.3016 32.0281 15.205 32.3526C15.1081 32.6772 14.8971 32.9008 14.7334 32.852Z" fill="#5E8031"/>
<path d="M40.7536 15.1209L41.3383 15.674C41.3383 15.674 39.7155 16.0862 39.7659 18.9055L37.944 17.7579C38.4305 16.8579 38.9967 16.0033 39.6356 15.2043C39.7008 15.1214 39.7825 15.0529 39.8756 15.0033C39.9686 14.9537 40.071 14.924 40.1762 14.9162C40.2814 14.9083 40.387 14.9225 40.4865 14.9577C40.5859 14.993 40.6768 15.0486 40.7536 15.1209Z" fill="#3E6A51"/>
<path d="M39.0039 17.7305C39.0039 17.7305 33.9769 14.8362 29.94 19.6347C28.2716 21.6179 27.658 23.6571 27.3365 25.9762C27.1252 27.5097 26.3442 28.9073 25.1489 29.891C24.8693 30.1206 24.5514 30.3704 24.1894 30.6407C24.1894 30.6407 22.762 31.6164 22.6859 33.6519C23.2423 40.3276 38.5522 39.9079 40.6481 31.5909C41.2944 26.6587 41.5497 22.1057 40.4633 18.8537C40.04 18.4037 39.5473 18.0245 39.0039 17.7305Z" fill="#FFD066"/>
<path d="M40.4626 18.8535C40.3059 19.5655 39.9841 20.2308 39.5232 20.7956C38.5868 21.9104 36.2066 24.4909 37.6492 30.4677C37.6518 30.4767 38.101 35.2545 32.3676 37.1151C27.9992 38.5326 23.3358 36.4007 22.6863 33.6511C22.6697 34.3652 22.7921 35.0758 23.0469 35.7431C24.3037 39.2065 28.2184 39.5449 30.3121 39.4836C38.5645 39.2419 40.844 33.2082 41.3383 31.6682C41.3383 31.6684 44.2845 22.9244 40.4626 18.8535Z" fill="#ED9D3E"/>
<path d="M41.3382 15.6738C41.3382 15.6738 42.5592 17.126 40.8032 20.9475C40.8032 20.9475 37.786 26.9674 41.0162 34.0593C41.2314 34.5374 41.3437 35.0553 41.3459 35.5796C41.3463 35.6272 41.3606 35.6736 41.387 35.7132C41.4134 35.7529 41.4508 35.7839 41.4945 35.8027C41.5383 35.8215 41.5865 35.8271 41.6334 35.8189C41.6803 35.8107 41.7239 35.7891 41.7587 35.7566C42.7891 34.7953 45.2203 32.1646 45.5119 28.5143C45.9241 23.3553 44.5866 18.3872 41.3382 15.6738Z" fill="#80B297"/>
<path d="M45.0332 25.4745C44.944 25.4112 44.8515 25.3525 44.7563 25.2987C44.0035 24.8736 43.936 24.3971 43.9328 24.3683C43.9321 24.3592 43.9295 24.3506 43.9279 24.3418C43.929 23.1735 43.8913 19.578 42.5606 17.1716C42.0978 16.3301 41.4351 15.6154 40.631 15.0905C40.5732 15.0498 40.5018 15.0332 40.4319 15.0444C40.3621 15.0556 40.2994 15.0936 40.2572 15.1503C40.215 15.2071 40.1966 15.278 40.206 15.3481C40.2154 15.4182 40.2517 15.4819 40.3074 15.5255C40.3074 15.5255 41.557 16.3994 42.0687 17.3999C42.4999 18.2428 42.9209 19.5466 43.1788 21.3097C43.2063 21.7302 43.1273 22.7074 41.9236 23.2707C41.4996 23.466 41.0977 23.706 40.7247 23.9867C40.6964 24.0084 40.6726 24.0354 40.6547 24.0663C40.6368 24.0971 40.6251 24.1312 40.6204 24.1666C40.6157 24.2019 40.618 24.2378 40.6272 24.2723C40.6364 24.3068 40.6523 24.3391 40.674 24.3674C40.7212 24.4195 40.7854 24.4531 40.8551 24.4624C40.9248 24.4717 40.9955 24.456 41.0547 24.418C41.4008 24.1671 41.7687 23.9477 42.154 23.7625C42.733 23.4914 43.1017 23.1359 43.3354 22.7703C43.4068 23.7936 43.8253 26.6295 42.0854 27.6293C40.9409 28.2868 40.9207 29.0985 40.9207 29.1332C40.9206 29.2054 40.9491 29.2748 40.9999 29.3261C41.0507 29.3774 41.1198 29.4065 41.192 29.4071C41.2275 29.4074 41.2627 29.4007 41.2955 29.3873C41.3284 29.374 41.3583 29.3542 41.3835 29.3293C41.4087 29.3043 41.4287 29.2746 41.4424 29.2419C41.456 29.2092 41.4631 29.174 41.4631 29.1386C41.4641 29.116 41.4953 28.5818 42.3506 28.1024C42.6589 27.934 42.9422 27.7234 43.1924 27.4768C42.9764 29.2274 42.632 30.9598 42.1619 32.6599C42.1522 32.6943 42.1495 32.7302 42.1538 32.7657C42.1582 32.8011 42.1696 32.8353 42.1873 32.8663C42.2051 32.8973 42.2288 32.9245 42.2572 32.9462C42.2855 32.9679 42.3179 32.9837 42.3525 32.9928C42.3868 33.0028 42.4229 33.0059 42.4584 33.0017C42.494 32.9975 42.5284 32.9861 42.5594 32.9683C42.5905 32.9505 42.6177 32.9267 42.6393 32.8981C42.661 32.8696 42.6766 32.8369 42.6853 32.8022C43.0563 31.4505 43.3522 30.0793 43.5715 28.6948C43.6091 28.7475 43.6491 28.7989 43.6922 28.8483C43.8887 29.0715 44.0084 29.352 44.0336 29.6484C44.0398 29.7157 44.0709 29.7783 44.1208 29.8239C44.1707 29.8695 44.2358 29.8948 44.3034 29.8949C44.3116 29.8949 44.3201 29.8945 44.3285 29.8937C44.364 29.8905 44.3984 29.8803 44.43 29.8637C44.4615 29.8471 44.4894 29.8245 44.5122 29.7971C44.535 29.7698 44.5522 29.7382 44.5627 29.7042C44.5733 29.6701 44.5771 29.6344 44.5738 29.5989C44.5389 29.1891 44.3733 28.8014 44.1016 28.4926C43.9684 28.3428 43.8684 28.1664 43.8082 27.9752C43.7479 27.784 43.7288 27.5821 43.752 27.383C43.752 27.383 43.9151 25.8462 43.9081 25.3408C44.0557 25.4858 44.4783 25.8602 44.8773 25.9675C44.9593 25.9896 45.0458 25.9278 45.0987 25.8533C45.1194 25.8241 45.134 25.7912 45.1419 25.7564C45.1498 25.7215 45.1507 25.6855 45.1446 25.6503C45.1386 25.6151 45.1256 25.5815 45.1065 25.5513C45.0873 25.5212 45.0625 25.4951 45.0332 25.4745Z" fill="#3E6A51"/>
<path d="M33.3544 22.7413C33.7493 22.0574 33.5646 21.2115 32.9419 20.852C32.3192 20.4924 31.4943 20.7554 31.0994 21.4394C30.7045 22.1233 30.8892 22.9692 31.5119 23.3287C32.1346 23.6883 32.9595 23.4253 33.3544 22.7413Z" fill="#FFF7E1"/>
</svg>
