<svg width="15" height="14" viewBox="0 0 15 14" fill="none" xmlns="http://www.w3.org/2000/svg">
<path d="M4.65261 0.242293C5.08273 0.255374 5.49919 0.330473 5.90268 0.4677H5.94296C5.97027 0.480672 5.99075 0.495009 6.0044 0.507981C6.15528 0.556454 6.29797 0.611072 6.43452 0.686171L6.69395 0.802234C6.79636 0.856851 6.91925 0.958577 6.98752 1.00022C7.05579 1.0405 7.13089 1.08215 7.19234 1.12926C7.95084 0.549627 8.87183 0.235575 9.82082 0.242293C10.2516 0.242293 10.6817 0.303164 11.0907 0.440391C13.6106 1.25966 14.5186 4.02468 13.7601 6.44151C13.33 7.67656 12.6268 8.80373 11.7058 9.72472C10.3875 11.0014 8.94079 12.1347 7.3835 13.111L7.21282 13.2141L7.03531 13.1042C5.47256 12.1347 4.01768 11.0014 2.68706 9.71789C1.77221 8.7969 1.06833 7.67656 0.631385 6.44151C-0.14009 4.02468 0.767929 1.25966 3.31516 0.426054C3.51315 0.357782 3.71729 0.309992 3.9221 0.283365H4.00403C4.19587 0.255374 4.38635 0.242293 4.57752 0.242293H4.65261ZM10.7357 2.3998C10.4557 2.30354 10.1485 2.45442 10.0461 2.74116C9.95053 3.02791 10.1007 3.34196 10.3875 3.44368C10.8251 3.60754 11.118 4.03833 11.118 4.51556V4.53672C11.105 4.69306 11.1521 4.84394 11.2477 4.96001C11.3433 5.07607 11.4867 5.14366 11.6369 5.158C11.9168 5.15049 12.1557 4.92587 12.1762 4.63845V4.5572C12.1967 3.60071 11.6171 2.73434 10.7357 2.3998Z" fill="white"/>
</svg>
