<svg width="24" height="23" viewBox="0 0 24 23" fill="none" xmlns="http://www.w3.org/2000/svg">
<path fill-rule="evenodd" clip-rule="evenodd" d="M11.7349 2.34961C16.7105 2.34961 20.7578 6.39685 20.7578 11.3725C20.7578 13.72 19.8569 15.861 18.3827 17.4679L21.2835 20.3627C21.555 20.6342 21.5559 21.0734 21.2844 21.3449C21.1492 21.482 20.9703 21.5496 20.7924 21.5496C20.6155 21.5496 20.4376 21.482 20.3014 21.3467L17.3655 18.419C15.8211 19.6559 13.8629 20.3963 11.7349 20.3963C6.75923 20.3963 2.71106 16.3482 2.71106 11.3725C2.71106 6.39685 6.75923 2.34961 11.7349 2.34961ZM11.7349 3.73946C7.5255 3.73946 4.10091 7.16312 4.10091 11.3725C4.10091 15.5819 7.5255 19.0065 11.7349 19.0065C15.9433 19.0065 19.3679 15.5819 19.3679 11.3725C19.3679 7.16312 15.9433 3.73946 11.7349 3.73946Z" fill="white"/>
</svg>
