<svg width="21" height="19" viewBox="0 0 21 19" fill="none" xmlns="http://www.w3.org/2000/svg">
<path d="M16.2227 11.8249C15.968 12.0717 15.8509 12.4287 15.9089 12.7788L16.7832 17.6171C16.8569 18.0272 16.6839 18.4422 16.3407 18.6792C16.0043 18.925 15.5569 18.9545 15.1901 18.7578L10.8346 16.4862C10.6832 16.4055 10.515 16.3623 10.3429 16.3574H10.0764C9.984 16.3711 9.89353 16.4006 9.81092 16.4459L5.45448 18.7283C5.23912 18.8365 4.99524 18.8749 4.75627 18.8365C4.1741 18.7264 3.78566 18.1717 3.88105 17.5866L4.75627 12.7483C4.81429 12.3953 4.69727 12.0363 4.44257 11.7856L0.89153 8.34368C0.594545 8.05554 0.491288 7.62285 0.626997 7.23244C0.758772 6.84302 1.09509 6.55882 1.50123 6.4949L6.38871 5.78587C6.76043 5.74752 7.08692 5.52134 7.25409 5.18698L9.40773 0.771541C9.45886 0.673201 9.52475 0.582729 9.60441 0.506024L9.69291 0.437187C9.73913 0.38605 9.79223 0.343764 9.85124 0.309345L9.95843 0.270009L10.1256 0.201172H10.5396C10.9094 0.239524 11.2349 0.460788 11.405 0.791209L13.5872 5.18698C13.7445 5.50855 14.0503 5.73178 14.4034 5.78587L19.2908 6.4949C19.7039 6.5539 20.049 6.83909 20.1857 7.23244C20.3146 7.62678 20.2034 8.05948 19.9005 8.34368L16.2227 11.8249Z" fill="black"/>
</svg>
